<mxfile host="app.diagrams.net" agent="Mozilla/5.0 (X11; Linux x86_64) AppleWebKit/537.36 (KHTML, like Gecko) Chrome/141.0.0.0 Safari/537.36" version="28.2.5">
  <diagram name="PÃ¡gina-1" id="nsBaKoui6gQ7kvtNh_Dv">
    <mxGraphModel dx="1426" dy="679" grid="1" gridSize="10" guides="1" tooltips="1" connect="1" arrows="1" fold="1" page="1" pageScale="1" pageWidth="827" pageHeight="1169" math="0" shadow="0">
      <root>
        <mxCell id="0" />
        <mxCell id="1" parent="0" />
        <mxCell id="RDAUd0CjxqGBB7JL1_wh-1" value="VISTA" style="rounded=0;whiteSpace=wrap;html=1;" vertex="1" parent="1">
          <mxGeometry x="120" y="20" width="120" height="60" as="geometry" />
        </mxCell>
        <mxCell id="RDAUd0CjxqGBB7JL1_wh-2" value="CONTROLADOR" style="rounded=0;whiteSpace=wrap;html=1;" vertex="1" parent="1">
          <mxGeometry x="320" y="20" width="120" height="60" as="geometry" />
        </mxCell>
        <mxCell id="RDAUd0CjxqGBB7JL1_wh-3" value="MODELO" style="rounded=0;whiteSpace=wrap;html=1;" vertex="1" parent="1">
          <mxGeometry x="520" y="20" width="120" height="60" as="geometry" />
        </mxCell>
        <mxCell id="RDAUd0CjxqGBB7JL1_wh-4" style="edgeStyle=orthogonalEdgeStyle;rounded=0;orthogonalLoop=1;jettySize=auto;html=1;exitX=0.5;exitY=1;exitDx=0;exitDy=0;entryX=0.5;entryY=0;entryDx=0;entryDy=0;" edge="1" parent="1" source="RDAUd0CjxqGBB7JL1_wh-5" target="RDAUd0CjxqGBB7JL1_wh-13">
          <mxGeometry relative="1" as="geometry" />
        </mxCell>
        <mxCell id="RDAUd0CjxqGBB7JL1_wh-5" value="comprobar prestamos asociados" style="rounded=1;whiteSpace=wrap;html=1;" vertex="1" parent="1">
          <mxGeometry x="320" y="600" width="120" height="40" as="geometry" />
        </mxCell>
        <mxCell id="RDAUd0CjxqGBB7JL1_wh-6" style="edgeStyle=orthogonalEdgeStyle;rounded=0;orthogonalLoop=1;jettySize=auto;html=1;exitX=0.5;exitY=1;exitDx=0;exitDy=0;entryX=0.5;entryY=0;entryDx=0;entryDy=0;" edge="1" parent="1" source="RDAUd0CjxqGBB7JL1_wh-7" target="RDAUd0CjxqGBB7JL1_wh-10">
          <mxGeometry relative="1" as="geometry" />
        </mxCell>
        <mxCell id="RDAUd0CjxqGBB7JL1_wh-7" value="informar existencia de prestamos asociados" style="rounded=1;whiteSpace=wrap;html=1;" vertex="1" parent="1">
          <mxGeometry x="120" y="680" width="120" height="40" as="geometry" />
        </mxCell>
        <mxCell id="RDAUd0CjxqGBB7JL1_wh-8" style="edgeStyle=orthogonalEdgeStyle;rounded=0;orthogonalLoop=1;jettySize=auto;html=1;exitX=1;exitY=0.5;exitDx=0;exitDy=0;" edge="1" parent="1" source="RDAUd0CjxqGBB7JL1_wh-9" target="RDAUd0CjxqGBB7JL1_wh-15">
          <mxGeometry relative="1" as="geometry" />
        </mxCell>
        <mxCell id="RDAUd0CjxqGBB7JL1_wh-9" value="baja garante" style="rounded=1;whiteSpace=wrap;html=1;" vertex="1" parent="1">
          <mxGeometry x="320" y="760" width="120" height="40" as="geometry" />
        </mxCell>
        <mxCell id="RDAUd0CjxqGBB7JL1_wh-10" value="" style="ellipse;whiteSpace=wrap;html=1;aspect=fixed;fillStyle=solid;fillColor=light-dark(#FFFFFF,#121212);" vertex="1" parent="1">
          <mxGeometry x="170" y="850" width="20" height="20" as="geometry" />
        </mxCell>
        <mxCell id="RDAUd0CjxqGBB7JL1_wh-11" style="edgeStyle=orthogonalEdgeStyle;rounded=0;orthogonalLoop=1;jettySize=auto;html=1;exitX=0.5;exitY=1;exitDx=0;exitDy=0;entryX=0.5;entryY=0;entryDx=0;entryDy=0;" edge="1" parent="1" source="RDAUd0CjxqGBB7JL1_wh-13" target="RDAUd0CjxqGBB7JL1_wh-9">
          <mxGeometry relative="1" as="geometry" />
        </mxCell>
        <mxCell id="RDAUd0CjxqGBB7JL1_wh-12" style="edgeStyle=orthogonalEdgeStyle;rounded=0;orthogonalLoop=1;jettySize=auto;html=1;exitX=0;exitY=0.5;exitDx=0;exitDy=0;" edge="1" parent="1" source="RDAUd0CjxqGBB7JL1_wh-13" target="RDAUd0CjxqGBB7JL1_wh-7">
          <mxGeometry relative="1" as="geometry" />
        </mxCell>
        <mxCell id="RDAUd0CjxqGBB7JL1_wh-13" value="" style="rhombus;whiteSpace=wrap;html=1;" vertex="1" parent="1">
          <mxGeometry x="360" y="680" width="40" height="40" as="geometry" />
        </mxCell>
        <mxCell id="RDAUd0CjxqGBB7JL1_wh-14" style="edgeStyle=orthogonalEdgeStyle;rounded=0;orthogonalLoop=1;jettySize=auto;html=1;exitX=0.5;exitY=1;exitDx=0;exitDy=0;entryX=1;entryY=0.5;entryDx=0;entryDy=0;" edge="1" parent="1" source="RDAUd0CjxqGBB7JL1_wh-15" target="RDAUd0CjxqGBB7JL1_wh-10">
          <mxGeometry relative="1" as="geometry" />
        </mxCell>
        <mxCell id="RDAUd0CjxqGBB7JL1_wh-15" value="modificar tabla garantes" style="rounded=1;whiteSpace=wrap;html=1;" vertex="1" parent="1">
          <mxGeometry x="520" y="760" width="120" height="40" as="geometry" />
        </mxCell>
        <mxCell id="RDAUd0CjxqGBB7JL1_wh-16" style="edgeStyle=orthogonalEdgeStyle;rounded=0;orthogonalLoop=1;jettySize=auto;html=1;exitX=1;exitY=0.5;exitDx=0;exitDy=0;entryX=0;entryY=0.5;entryDx=0;entryDy=0;" edge="1" parent="1" source="RDAUd0CjxqGBB7JL1_wh-17" target="RDAUd0CjxqGBB7JL1_wh-5">
          <mxGeometry relative="1" as="geometry" />
        </mxCell>
        <mxCell id="RDAUd0CjxqGBB7JL1_wh-17" value="baja garante" style="rounded=1;whiteSpace=wrap;html=1;" vertex="1" parent="1">
          <mxGeometry x="120" y="600" width="120" height="40" as="geometry" />
        </mxCell>
        <mxCell id="RDAUd0CjxqGBB7JL1_wh-18" style="edgeStyle=orthogonalEdgeStyle;rounded=0;orthogonalLoop=1;jettySize=auto;html=1;exitX=0.5;exitY=1;exitDx=0;exitDy=0;entryX=0.5;entryY=0;entryDx=0;entryDy=0;" edge="1" parent="1" source="RDAUd0CjxqGBB7JL1_wh-19" target="RDAUd0CjxqGBB7JL1_wh-21">
          <mxGeometry relative="1" as="geometry" />
        </mxCell>
        <mxCell id="RDAUd0CjxqGBB7JL1_wh-19" value="vista garantes" style="rounded=1;whiteSpace=wrap;html=1;" vertex="1" parent="1">
          <mxGeometry x="120" y="120" width="120" height="40" as="geometry" />
        </mxCell>
        <mxCell id="RDAUd0CjxqGBB7JL1_wh-20" style="edgeStyle=orthogonalEdgeStyle;rounded=0;orthogonalLoop=1;jettySize=auto;html=1;exitX=1;exitY=0.5;exitDx=0;exitDy=0;entryX=0;entryY=0.5;entryDx=0;entryDy=0;" edge="1" parent="1" source="RDAUd0CjxqGBB7JL1_wh-21" target="RDAUd0CjxqGBB7JL1_wh-23">
          <mxGeometry relative="1" as="geometry" />
        </mxCell>
        <mxCell id="RDAUd0CjxqGBB7JL1_wh-21" value="listar garantes" style="rounded=1;whiteSpace=wrap;html=1;" vertex="1" parent="1">
          <mxGeometry x="120" y="200" width="120" height="40" as="geometry" />
        </mxCell>
        <mxCell id="RDAUd0CjxqGBB7JL1_wh-22" style="edgeStyle=orthogonalEdgeStyle;rounded=0;orthogonalLoop=1;jettySize=auto;html=1;exitX=1;exitY=0.5;exitDx=0;exitDy=0;entryX=0;entryY=0.5;entryDx=0;entryDy=0;" edge="1" parent="1" source="RDAUd0CjxqGBB7JL1_wh-23" target="RDAUd0CjxqGBB7JL1_wh-25">
          <mxGeometry relative="1" as="geometry" />
        </mxCell>
        <mxCell id="RDAUd0CjxqGBB7JL1_wh-23" value="recuperar lista garantes" style="rounded=1;whiteSpace=wrap;html=1;" vertex="1" parent="1">
          <mxGeometry x="320" y="200" width="120" height="40" as="geometry" />
        </mxCell>
        <mxCell id="RDAUd0CjxqGBB7JL1_wh-24" style="edgeStyle=orthogonalEdgeStyle;rounded=0;orthogonalLoop=1;jettySize=auto;html=1;exitX=0.5;exitY=1;exitDx=0;exitDy=0;entryX=1;entryY=0.5;entryDx=0;entryDy=0;" edge="1" parent="1" source="RDAUd0CjxqGBB7JL1_wh-25" target="RDAUd0CjxqGBB7JL1_wh-30">
          <mxGeometry relative="1" as="geometry" />
        </mxCell>
        <mxCell id="RDAUd0CjxqGBB7JL1_wh-25" value="recuperar garantes" style="rounded=1;whiteSpace=wrap;html=1;" vertex="1" parent="1">
          <mxGeometry x="520" y="200" width="120" height="40" as="geometry" />
        </mxCell>
        <mxCell id="RDAUd0CjxqGBB7JL1_wh-26" style="edgeStyle=orthogonalEdgeStyle;rounded=0;orthogonalLoop=1;jettySize=auto;html=1;exitX=0;exitY=0.5;exitDx=0;exitDy=0;entryX=1;entryY=0.5;entryDx=0;entryDy=0;" edge="1" parent="1" source="RDAUd0CjxqGBB7JL1_wh-28" target="RDAUd0CjxqGBB7JL1_wh-32">
          <mxGeometry relative="1" as="geometry" />
        </mxCell>
        <mxCell id="RDAUd0CjxqGBB7JL1_wh-27" style="edgeStyle=orthogonalEdgeStyle;rounded=0;orthogonalLoop=1;jettySize=auto;html=1;exitX=0.5;exitY=1;exitDx=0;exitDy=0;entryX=1;entryY=0.5;entryDx=0;entryDy=0;" edge="1" parent="1" source="RDAUd0CjxqGBB7JL1_wh-28" target="RDAUd0CjxqGBB7JL1_wh-34">
          <mxGeometry relative="1" as="geometry" />
        </mxCell>
        <mxCell id="RDAUd0CjxqGBB7JL1_wh-28" value="" style="rhombus;whiteSpace=wrap;html=1;" vertex="1" parent="1">
          <mxGeometry x="360" y="360" width="40" height="40" as="geometry" />
        </mxCell>
        <mxCell id="RDAUd0CjxqGBB7JL1_wh-29" style="edgeStyle=orthogonalEdgeStyle;rounded=0;orthogonalLoop=1;jettySize=auto;html=1;exitX=0.5;exitY=1;exitDx=0;exitDy=0;entryX=0.5;entryY=0;entryDx=0;entryDy=0;" edge="1" parent="1" source="RDAUd0CjxqGBB7JL1_wh-30" target="RDAUd0CjxqGBB7JL1_wh-28">
          <mxGeometry relative="1" as="geometry" />
        </mxCell>
        <mxCell id="RDAUd0CjxqGBB7JL1_wh-30" value="comprobar lista" style="rounded=1;whiteSpace=wrap;html=1;" vertex="1" parent="1">
          <mxGeometry x="320" y="280" width="120" height="40" as="geometry" />
        </mxCell>
        <mxCell id="RDAUd0CjxqGBB7JL1_wh-31" style="edgeStyle=orthogonalEdgeStyle;rounded=0;orthogonalLoop=1;jettySize=auto;html=1;exitX=0;exitY=0.5;exitDx=0;exitDy=0;entryX=0;entryY=0.5;entryDx=0;entryDy=0;" edge="1" parent="1" source="RDAUd0CjxqGBB7JL1_wh-32" target="RDAUd0CjxqGBB7JL1_wh-10">
          <mxGeometry relative="1" as="geometry" />
        </mxCell>
        <mxCell id="RDAUd0CjxqGBB7JL1_wh-32" value="informar lista vacia" style="rounded=1;whiteSpace=wrap;html=1;" vertex="1" parent="1">
          <mxGeometry x="120" y="360" width="120" height="40" as="geometry" />
        </mxCell>
        <mxCell id="RDAUd0CjxqGBB7JL1_wh-33" style="edgeStyle=orthogonalEdgeStyle;rounded=0;orthogonalLoop=1;jettySize=auto;html=1;exitX=0.5;exitY=1;exitDx=0;exitDy=0;entryX=0.5;entryY=0;entryDx=0;entryDy=0;" edge="1" parent="1" source="RDAUd0CjxqGBB7JL1_wh-34" target="RDAUd0CjxqGBB7JL1_wh-36">
          <mxGeometry relative="1" as="geometry" />
        </mxCell>
        <mxCell id="RDAUd0CjxqGBB7JL1_wh-34" value="mostrar lista" style="rounded=1;whiteSpace=wrap;html=1;" vertex="1" parent="1">
          <mxGeometry x="120" y="440" width="120" height="40" as="geometry" />
        </mxCell>
        <mxCell id="RDAUd0CjxqGBB7JL1_wh-35" style="edgeStyle=orthogonalEdgeStyle;rounded=0;orthogonalLoop=1;jettySize=auto;html=1;exitX=0.5;exitY=1;exitDx=0;exitDy=0;" edge="1" parent="1" source="RDAUd0CjxqGBB7JL1_wh-36" target="RDAUd0CjxqGBB7JL1_wh-17">
          <mxGeometry relative="1" as="geometry" />
        </mxCell>
        <mxCell id="RDAUd0CjxqGBB7JL1_wh-36" value="seleccionar garante" style="rounded=1;whiteSpace=wrap;html=1;" vertex="1" parent="1">
          <mxGeometry x="120" y="520" width="120" height="40" as="geometry" />
        </mxCell>
      </root>
    </mxGraphModel>
  </diagram>
</mxfile>
